<svg id="Layer_1" data-name="Layer 1" xmlns="http://www.w3.org/2000/svg" viewBox="0 0 400 400"><line x1="200" y1="127.19" x2="200" y2="215.24" style="fill:none;stroke:#fff;stroke-linecap:round;stroke-miterlimit:10;stroke-width:14px"/><line x1="263.05" y1="163.6" x2="242.6" y2="175.41" style="fill:none;stroke:#fff;stroke-linecap:round;stroke-miterlimit:10;stroke-width:14px"/><line x1="263.05" y1="236.4" x2="242.6" y2="224.59" style="fill:none;stroke:#fff;stroke-linecap:round;stroke-miterlimit:10;stroke-width:14px"/><line x1="200" y1="272.8" x2="200" y2="260.99" style="fill:none;stroke:#fff;stroke-linecap:round;stroke-miterlimit:10;stroke-width:14px"/><line x1="136.95" y1="236.4" x2="157.4" y2="224.59" style="fill:none;stroke:#fff;stroke-linecap:round;stroke-miterlimit:10;stroke-width:14px"/><line x1="136.95" y1="163.6" x2="157.4" y2="175.41" style="fill:none;stroke:#fff;stroke-linecap:round;stroke-miterlimit:10;stroke-width:14px"/><path d="M200,56.71a72.37,72.37,0,0,1,36.12,9.68l61.53,35.52a72.45,72.45,0,0,1,36.12,62.56v71.06a72.45,72.45,0,0,1-36.12,62.56l-61.53,35.52a72.23,72.23,0,0,1-72.24,0l-61.53-35.52a72.45,72.45,0,0,1-36.12-62.56V164.47a72.45,72.45,0,0,1,36.12-62.56l61.53-35.52A72.37,72.37,0,0,1,200,56.71m0-14a86.2,86.2,0,0,0-43.12,11.55L95.35,89.79a86.23,86.23,0,0,0-43.12,74.68v71.06a86.23,86.23,0,0,0,43.12,74.68l61.53,35.53a86.27,86.27,0,0,0,86.24,0l61.53-35.53a86.23,86.23,0,0,0,43.12-74.68V164.47a86.23,86.23,0,0,0-43.12-74.68L243.12,54.26A86.2,86.2,0,0,0,200,42.71Z" style="fill:#fff"/></svg>