<?xml version="1.0" encoding="UTF-8"?>
<svg id="Layer_1" data-name="Layer 1" xmlns="http://www.w3.org/2000/svg" viewBox="0 0 400 400">
  <defs>
    <style>
      .cls-1 {
        stroke-miterlimit: 10;
        stroke-width: 14px;
      }

      .cls-1, .cls-2 {
        fill: none;
        stroke: #fff;
        stroke-linecap: round;
      }

      .cls-2 {
        stroke-linejoin: round;
        stroke-width: 12px;
      }
    </style>
  </defs>
  <line class="cls-1" x1="200" y1="119.78" x2="200" y2="216.79"/>
  <line class="cls-1" x1="269.47" y1="159.89" x2="246.93" y2="172.91"/>
  <line class="cls-1" x1="269.47" y1="240.11" x2="246.93" y2="227.1"/>
  <line class="cls-1" x1="200" y1="280.21" x2="200" y2="267.2"/>
  <line class="cls-1" x1="130.53" y1="240.11" x2="153.07" y2="227.09"/>
  <line class="cls-1" x1="130.53" y1="159.89" x2="153.07" y2="172.9"/>
  <g>
    <polyline class="cls-2" points="238.97 57.48 200 34.98 161.03 57.48"/>
    <polyline class="cls-2" points="96.06 94.99 57.09 117.49 57.09 162.49"/>
    <polyline class="cls-2" points="57.09 237.51 57.09 282.51 96.06 305.01"/>
    <polyline class="cls-2" points="161.03 342.52 200 365.02 238.97 342.52"/>
    <polyline class="cls-2" points="303.94 305.01 342.91 282.51 342.91 237.51"/>
    <polyline class="cls-2" points="342.91 162.49 342.91 117.49 303.94 94.99"/>
  </g>
</svg>