<svg id="Layer_1" data-name="Layer 1" xmlns="http://www.w3.org/2000/svg" xmlns:xlink="http://www.w3.org/1999/xlink" viewBox="0 0 470.24 470.24"><defs><filter id="luminosity-invert" filterUnits="userSpaceOnUse" color-interpolation-filters="sRGB"><feColorMatrix values="-1 0 0 0 1 0 -1 0 0 1 0 0 -1 0 1 0 0 0 1 0"/></filter><mask id="mask" x="6" y="6" width="379.62" height="466.75" maskUnits="userSpaceOnUse"><g style="filter:url(#luminosity-invert)"><path d="M86.41,299.55c-7.29.26-14.79-.52-21.34-3.73s-12-9.14-13.39-16.31,2.26-15.35,9-18.08,15.8,1.63,16.82,8.86C74.25,262.3,85,253.82,93,257s11.31,13.46,9.22,21.84S94.08,294,87.94,300" style="fill:none;stroke:#000;stroke-linecap:round;stroke-linejoin:round;stroke-width:12px"/><path d="M192.53,453.54c7-28.72-6.13-58.06-18.19-85.05s-23.5-57.58-13.37-85.36" style="fill:none;stroke:#000;stroke-linecap:round;stroke-miterlimit:10;stroke-width:12px"/><path d="M203.34,466.75a148.8,148.8,0,0,1,10.57-113.28c11.81-22.13,29.3-41.29,37.84-64.88s4.38-55.07-18-66.34" style="fill:none;stroke:#000;stroke-linecap:round;stroke-miterlimit:10;stroke-width:12px"/><path d="M200.32,436.81c-4.06-16.44,3.59-33.6,13.68-47.2s22.8-25.29,31.29-39.94,12-34,2.69-48.14" style="fill:none;stroke:#000;stroke-linecap:round;stroke-miterlimit:10;stroke-width:12px"/><path d="M196.13,444.74c-6.89-15.05-24-22.59-33.69-36-10.7-14.85-10.8-35.42-4.18-52.48s19.07-31.17,32.23-43.88" style="fill:none;stroke:#000;stroke-linecap:round;stroke-miterlimit:10;stroke-width:12px"/><path d="M257.81,125.45l14.29-22.23" style="fill:none;stroke:#000;stroke-linecap:round;stroke-miterlimit:10;stroke-width:12px"/><path d="M284.81,146l22.46-15.6" style="fill:none;stroke:#000;stroke-linecap:round;stroke-miterlimit:10;stroke-width:12px"/><path d="M294.33,176.36l27-4.76" style="fill:none;stroke:#000;stroke-linecap:round;stroke-miterlimit:10;stroke-width:12px"/><path d="M179.62,250.35a29.74,29.74,0,0,0-14.89-14.88l-35.85-16.19,35.85-16.2a29.74,29.74,0,0,0,14.89-14.88l16.19-35.85L212,188.2a29.74,29.74,0,0,0,14.89,14.88l35.85,16.2-35.85,16.19A29.74,29.74,0,0,0,212,250.35L195.81,286.2Z" style="fill:#fff"/><path d="M195.81,166.93l10.72,23.74a35.78,35.78,0,0,0,17.89,17.88l23.74,10.73L224.42,230a35.78,35.78,0,0,0-17.89,17.88l-10.72,23.75-10.72-23.75A35.78,35.78,0,0,0,167.2,230l-23.74-10.72,23.74-10.73a35.78,35.78,0,0,0,17.89-17.88l10.72-23.74m0-24.79a3,3,0,0,0-2.78,1.8l-18.88,41.79a23.81,23.81,0,0,1-11.88,11.89l-41.8,18.87a3.06,3.06,0,0,0,0,5.57l41.8,18.88a23.79,23.79,0,0,1,11.88,11.88L193,294.61a3.05,3.05,0,0,0,5.57,0l18.87-41.79a23.77,23.77,0,0,1,11.89-11.88l41.79-18.88a3.05,3.05,0,0,0,0-5.57l-41.79-18.87a23.79,23.79,0,0,1-11.89-11.89L198.6,143.94a3,3,0,0,0-2.79-1.8Z"/></g></mask><symbol id="PLAINTORCH-min" data-name="PLAINTORCH-min" viewBox="0 0 391.62 438.55"><g id="PLAINTORCH-Dark"><g style="mask:url(#mask)"><path d="M176.75,11.11,25.06,98.68A38.14,38.14,0,0,0,6,131.7V306.85a38.14,38.14,0,0,0,19.06,33l151.69,87.57a38.12,38.12,0,0,0,38.12,0l151.69-87.57a38.14,38.14,0,0,0,19.06-33V131.7a38.14,38.14,0,0,0-19.06-33L214.87,11.11A38.12,38.12,0,0,0,176.75,11.11Z" style="fill:#fff"/></g><path d="M176.75,11.11,25.06,98.68A38.14,38.14,0,0,0,6,131.7V306.85a38.14,38.14,0,0,0,19.06,33l151.69,87.57a38.12,38.12,0,0,0,38.12,0l151.69-87.57a38.14,38.14,0,0,0,19.06-33V131.7a38.14,38.14,0,0,0-19.06-33L214.87,11.11A38.12,38.12,0,0,0,176.75,11.11Z" style="fill:none;stroke:#fff;stroke-miterlimit:10;stroke-width:12px"/></g></symbol></defs><use width="391.62" height="438.55" transform="translate(39.31 15.84)" xlink:href="#PLAINTORCH-min"/></svg>