<?xml version="1.0" encoding="UTF-8"?>
<svg xmlns="http://www.w3.org/2000/svg" xmlns:xlink="http://www.w3.org/1999/xlink" viewBox="0 0 4732.04 2712.17">
  <defs>
    <style>
      .cls-1 {
        mask: url(#mask-1);
      }

      .cls-2, .cls-3, .cls-4 {
        fill: #fcfcfc;
      }

      .cls-5, .cls-6, .cls-7, .cls-8, .cls-9, .cls-10, .cls-11, .cls-12, .cls-13, .cls-14, .cls-15 {
        fill: none;
      }

      .cls-5, .cls-6, .cls-8, .cls-9, .cls-10, .cls-11, .cls-12, .cls-13, .cls-15 {
        stroke-miterlimit: 10;
      }

      .cls-5, .cls-6, .cls-8, .cls-10 {
        stroke: #c46eb2;
      }

      .cls-5, .cls-6, .cls-8, .cls-10, .cls-11, .cls-12, .cls-15 {
        stroke-width: 4px;
      }

      .cls-16 {
        font-size: 122.74px;
      }

      .cls-16, .cls-17 {
        font-family: SpaceGrotesk-Regular, 'Space Grotesk';
        font-variation-settings: 'wght' 400;
      }

      .cls-16, .cls-17, .cls-18 {
        fill: #c46eb2;
      }

      .cls-19 {
        fill: #fff;
      }

      .cls-20 {
        mask: url(#mask);
      }

      .cls-21, .cls-22 {
        fill: #969898;
      }

      .cls-6 {
        stroke-dasharray: 43.46 43.46;
      }

      .cls-17 {
        font-size: 76.17px;
      }

      .cls-8 {
        stroke-dasharray: 44.32 44.32;
      }

      .cls-9, .cls-11, .cls-12, .cls-13, .cls-14, .cls-15 {
        stroke: #fff;
      }

      .cls-9, .cls-13, .cls-14 {
        stroke-linecap: round;
      }

      .cls-9, .cls-14 {
        stroke-width: 11px;
      }

      .cls-3 {
        font-size: 72.67px;
      }

      .cls-3, .cls-22, .cls-4 {
        font-family: Outfit-Light, Outfit;
        font-variation-settings: 'wght' 300;
        font-weight: 300;
      }

      .cls-23 {
        mask: url(#mask-2);
      }

      .cls-10 {
        stroke-dasharray: 41.86 41.86;
      }

      .cls-22, .cls-4 {
        font-size: 50.59px;
      }

      .cls-24 {
        fill: #42abda;
      }

      .cls-12 {
        stroke-dasharray: 47.85 47.85;
      }

      .cls-25 {
        fill: #fae746;
      }

      .cls-26 {
        fill: #e63f2a;
      }

      .cls-13 {
        stroke-width: 8px;
      }

      .cls-14 {
        stroke-linejoin: round;
      }

      .cls-15 {
        stroke-dasharray: 44.02 44.02;
      }

      .cls-27 {
        filter: url(#luminosity-noclip);
      }
    </style>
    <symbol id="decree" viewBox="0 0 400 400">
      <g>
        <rect class="cls-7" width="400" height="400"/>
        <path class="cls-19" d="M200,58.22c2.58,0,5.01,1.01,6.83,2.83l132.11,132.11c1.83,1.83,2.83,4.25,2.83,6.83s-1.01,5.01-2.83,6.83l-132.11,132.11c-1.83,1.83-4.25,2.83-6.83,2.83s-5.01-1.01-6.83-2.83L61.05,206.83c-1.83-1.83-2.83-4.25-2.83-6.83s1.01-5.01,2.83-6.83L193.17,61.05c1.83-1.83,4.25-2.83,6.83-2.83M200,47.22c-5.29,0-10.58,2.02-14.61,6.05L53.27,185.39c-8.07,8.07-8.07,21.16,0,29.23l132.11,132.11c4.04,4.04,9.32,6.05,14.61,6.05s10.58-2.02,14.61-6.05l132.11-132.11c8.07-8.07,8.07-21.16,0-29.23L214.61,53.27c-4.04-4.04-9.32-6.05-14.61-6.05h0Z"/>
        <path class="cls-19" d="M269.04,180.21l-4.04-4.04-61.36,61.36c-2.01,2.01-5.27,2.01-7.28,0l-61.36-61.36-4.04,4.04c-3.46,7.21-4.92,15.14-4.38,22.96l70.86,70.86c1.71.1,3.42.1,5.12,0l70.86-70.86c.54-7.82-.92-15.75-4.38-22.96ZM204.31,192.06l40.12-40.12-17.71-17.71-23.08,23.08c-2.01,2.01-5.27,2.01-7.28,0l-23.08-23.08-17.71,17.71,40.12,40.12c2.38,2.38,6.25,2.38,8.63,0Z"/>
      </g>
    </symbol>
    <symbol id="directive" viewBox="0 0 400 400">
      <g>
        <path class="cls-19" d="M238.01,175.46l39.74,17.95c-3.17-37.84-33.31-67.98-71.15-71.15l17.95,39.74c2.7,5.98,7.49,10.77,13.47,13.47ZM122.26,193.41l39.74-17.95c5.98-2.7,10.77-7.49,13.47-13.47l17.95-39.74c-37.84,3.17-67.98,33.31-71.15,71.15ZM224.54,238.01l-17.95,39.74c37.84-3.17,67.98-33.31,71.15-71.15l-39.74,17.95c-5.98,2.7-10.77,7.49-13.47,13.47ZM161.99,224.54l-39.74-17.95c3.17,37.84,33.31,67.98,71.15,71.15l-17.95-39.74c-2.7-5.98-7.49-10.77-13.47-13.47Z"/>
        <path class="cls-19" d="M200,58.22c2.58,0,5.01,1.01,6.83,2.83l132.11,132.11c1.83,1.83,2.83,4.25,2.83,6.83s-1.01,5.01-2.83,6.84l-132.11,132.11c-1.83,1.83-4.25,2.83-6.83,2.83s-5.01-1.01-6.83-2.83L61.05,206.83c-1.83-1.83-2.83-4.25-2.83-6.84s1.01-5.01,2.83-6.83L193.17,61.05c1.83-1.83,4.25-2.83,6.83-2.83M200,47.22c-5.29,0-10.58,2.02-14.61,6.05L53.27,185.39c-8.07,8.07-8.07,21.16,0,29.23l132.11,132.11c4.04,4.04,9.32,6.05,14.61,6.05s10.58-2.02,14.61-6.05l132.11-132.11c8.07-8.07,8.07-21.16,0-29.23L214.61,53.27c-4.04-4.04-9.32-6.05-14.61-6.05h0Z"/>
        <rect class="cls-7" width="400" height="400"/>
      </g>
    </symbol>
    <symbol id="fate" viewBox="0 0 400 400">
      <g id="decree-2" data-name="decree">
        <path class="cls-19" d="M172.37,215.46l51.22,51.96c1.21,1.22,3.29.43,3.38-1.28l3.98-72.85c.18-3.25-1.02-6.42-3.31-8.74l-51.22-51.96c-1.21-1.22-3.29-.43-3.38,1.28l-3.98,72.85c-.18,3.25,1.02,6.42,3.31,8.74Z"/>
        <rect class="cls-7" width="400" height="400"/>
        <path class="cls-19" d="M200,58.22c2.58,0,5.01,1.01,6.83,2.83l132.11,132.11c1.83,1.83,2.83,4.25,2.83,6.84s-1.01,5.01-2.83,6.84l-132.11,132.11c-1.83,1.83-4.25,2.83-6.84,2.83s-5.01-1.01-6.83-2.83L61.05,206.84c-1.83-1.83-2.83-4.25-2.83-6.84s1.01-5.01,2.83-6.84L193.16,61.05c1.83-1.83,4.25-2.83,6.84-2.83M200,47.22c-5.29,0-10.58,2.02-14.61,6.05L53.27,185.39c-8.07,8.07-8.07,21.16,0,29.23l132.11,132.11c4.04,4.04,9.32,6.05,14.61,6.05s10.58-2.02,14.61-6.05l132.11-132.11c8.07-8.07,8.07-21.16,0-29.23L214.61,53.27c-4.04-4.04-9.32-6.05-14.61-6.05h0Z"/>
        <path class="cls-13" d="M213.24,135.2c22.37,3.82,41.93,18.6,50.32,40.75,8.21,21.69,3.71,45.17-9.84,62.73"/>
        <path class="cls-13" d="M186.76,264.8c-22.37-3.82-41.93-18.6-50.32-40.75-8.21-21.69-3.71-45.17,9.84-62.73"/>
      </g>
    </symbol>
    <filter id="luminosity-noclip" x="121.96" y="121.96" width="156.08" height="156.08" color-interpolation-filters="sRGB" filterUnits="userSpaceOnUse">
      <feFlood flood-color="#fff" result="bg"/>
      <feBlend in="SourceGraphic" in2="bg"/>
    </filter>
    <mask id="mask" x="121.96" y="121.96" width="156.08" height="156.08" maskUnits="userSpaceOnUse">
      <g class="cls-27">
        <circle cx="221.18" cy="178.82" r="53.56"/>
      </g>
    </mask>
    <symbol id="lunar-directive" viewBox="0 0 400 400">
      <g>
        <rect class="cls-7" width="400" height="400"/>
        <g class="cls-20">
          <circle class="cls-19" cx="200" cy="200" r="78.04"/>
        </g>
        <path class="cls-19" d="M200,58.22c2.58,0,5.01,1.01,6.83,2.83l132.11,132.11c1.83,1.83,2.83,4.25,2.83,6.83s-1.01,5.01-2.83,6.84l-132.11,132.11c-1.83,1.83-4.25,2.83-6.83,2.83s-5.01-1.01-6.83-2.83L61.05,206.83c-1.83-1.83-2.83-4.25-2.83-6.84s1.01-5.01,2.83-6.83L193.17,61.05c1.83-1.83,4.25-2.83,6.83-2.83M200,47.22c-5.29,0-10.58,2.02-14.61,6.05L53.27,185.39c-8.07,8.07-8.07,21.16,0,29.23l132.11,132.11c4.04,4.04,9.32,6.05,14.61,6.05s10.58-2.02,14.61-6.05l132.11-132.11c8.07-8.07,8.07-21.16,0-29.23L214.61,53.27c-4.04-4.04-9.32-6.05-14.61-6.05h0Z"/>
      </g>
    </symbol>
    <symbol id="objective" viewBox="0 0 400 400">
      <g>
        <path class="cls-19" d="M200,58.22c2.58,0,5.01,1.01,6.83,2.83l132.11,132.11c1.83,1.83,2.83,4.25,2.83,6.83s-1.01,5.01-2.83,6.83l-132.11,132.11c-1.83,1.83-4.25,2.83-6.83,2.83s-5.01-1.01-6.83-2.83L61.05,206.83c-1.83-1.83-2.83-4.25-2.83-6.83s1.01-5.01,2.83-6.83L193.17,61.05c1.83-1.83,4.25-2.83,6.83-2.83M200,47.22c-5.29,0-10.58,2.02-14.61,6.05L53.27,185.39c-8.07,8.07-8.07,21.16,0,29.23l132.11,132.11c4.04,4.04,9.32,6.05,14.61,6.05s10.58-2.02,14.61-6.05l132.11-132.11c8.07-8.07,8.07-21.16,0-29.23L214.61,53.27c-4.04-4.04-9.32-6.05-14.61-6.05h0Z"/>
        <path class="cls-19" d="M259.7,221.99l-37.71,37.71c-12.15,12.15-31.84,12.15-43.99,0l-37.71-37.71c-12.15-12.15-12.15-31.84,0-43.99l37.71-37.71c12.15-12.15,31.84-12.15,43.99,0l37.71,37.71c12.15,12.15,12.15,31.84,0,43.99Z"/>
        <rect class="cls-7" width="400" height="400"/>
      </g>
    </symbol>
    <symbol id="polaris-ui" viewBox="0 0 403.94 403.94">
      <g>
        <path class="cls-19" d="M204.87,184.92l23.25-23.25s-.04-.08-.06-.12l-22.4-49.59c-1.44-3.18-5.96-3.18-7.4,0l-22.4,49.59s-.04.08-.06.12l23.25,23.25c1.6,1.6,4.21,1.6,5.81,0ZM291.97,198.27l-49.59-22.4s-.08-.04-.12-.06l-40.3,40.3-40.3-40.3s-.08.04-.12.06l-49.59,22.4c-3.18,1.44-3.18,5.96,0,7.4l49.59,22.4c6.36,2.87,11.45,7.96,14.32,14.32l22.4,49.59c1.44,3.18,5.96,3.18,7.4,0l22.4-49.59c2.87-6.36,7.96-11.45,14.32-14.32l49.59-22.4c3.18-1.44,3.18-5.96,0-7.4Z"/>
        <line class="cls-13" x1="201.97" y1="39.45" x2="201.97" y2="69.49"/>
        <line class="cls-13" x1="323.26" y1="80.68" x2="289.28" y2="114.66"/>
        <line class="cls-13" x1="364.49" y1="201.97" x2="334.45" y2="201.97"/>
        <line class="cls-13" x1="323.26" y1="323.26" x2="289.28" y2="289.28"/>
        <line class="cls-13" x1="201.97" y1="364.49" x2="201.97" y2="334.45"/>
        <line class="cls-13" x1="80.68" y1="323.26" x2="114.66" y2="289.28"/>
        <line class="cls-13" x1="39.45" y1="201.97" x2="69.49" y2="201.97"/>
        <line class="cls-13" x1="80.68" y1="80.68" x2="114.66" y2="114.66"/>
        <circle class="cls-7" cx="201.97" cy="201.97" r="201.97"/>
        <path class="cls-13" d="M201.97,54.47c81.46,0,147.5,66.04,147.5,147.5s-66.04,147.5-147.5,147.5c-40.73,0-77.61-16.51-104.3-43.2"/>
      </g>
    </symbol>
    <symbol id="starfire" viewBox="0 0 400 400">
      <g>
        <path class="cls-19" d="M228.45,276.26l34.9,15.76c2.24,1.01,2.24,4.19,0,5.21l-34.9,15.76c-4.47,2.02-8.06,5.6-10.08,10.08l-15.76,34.9c-1.01,2.24-4.19,2.24-5.21,0l-15.76-34.9c-2.02-4.47-5.6-8.06-10.08-10.08l-34.9-15.76c-2.24-1.01-2.24-4.19,0-5.21l34.9-15.76c4.47-2.02,8.06-5.6,10.08-10.08l15.76-34.9c1.01-2.24,4.19-2.24,5.21,0l15.76,34.9c2.02,4.47,5.6,8.06,10.08,10.08Z"/>
        <path class="cls-19" d="M135.16,215.04l8.15-5c.52-.32,1.18.13,1.07.73l-1.64,9.41c-.21,1.21.03,2.45.67,3.49l5,8.15c.32.52-.13,1.18-.73,1.07l-9.41-1.64c-1.21-.21-2.45.03-3.49.67l-8.15,5c-.52.32-1.18-.13-1.07-.73l1.64-9.41c.21-1.21-.03-2.45-.67-3.49l-5-8.15c-.32-.52.13-1.18.73-1.07l9.41,1.64c1.21.21,2.45-.03,3.49-.67Z"/>
        <path class="cls-19" d="M288.29,80.51l10.12-1.34c.65-.09,1.1.63.73,1.18l-5.68,8.48c-.73,1.09-1.04,2.4-.86,3.7l1.34,10.12c.09.65-.63,1.1-1.18.73l-8.48-5.68c-1.09-.73-2.4-1.04-3.7-.86l-10.12,1.34c-.65.09-1.1-.63-.73-1.18l5.68-8.48c.73-1.09,1.04-2.4.86-3.7l-1.34-10.12c-.09-.65.63-1.1,1.18-.73l8.48,5.68c1.09.73,2.4,1.04,3.7.86Z"/>
        <path class="cls-19" d="M321.43,251.73c-16.61-86.51-149.2-59.51-76.52-202.64,1.49-2.93-1.84-5.85-4.6-4.07-28.39,18.3-57.54,37.9-79.09,60.06-3.81,3.91-10.39-.24-9.04-5.53,2.96-11.63,6.41-25.22,9.24-36.36.86-3.38-3.45-5.6-5.7-2.93-47.9,56.68-102.23,123.01-88.19,201.46,5.8,32.76,27.33,63.22,57.22,77.92,1.31.64,2.36-1.25,1.11-2.02-69.02-42.86-54.02-140.72-8.16-200.5,1.46-1.91,4.49-.43,3.87,1.89-1.96,7.38-4.41,16.62-6.67,25.15-1.42,5.37,5.81,9.61,9.08,5.11,20.92-28.77,45.3-55.8,78.11-72.85,2.5-1.3,5.43.09,5.02,2.88-15.92,107.06,122.72,75.93,110.98,187.01-.11,1.08,1.48,1.33,1.72.27,2.84-12.36,3.8-22.52,1.63-34.85Z"/>
        <rect class="cls-7" width="400" height="400"/>
      </g>
    </symbol>
    <mask id="mask-1" x="0" y="0" width="1861.3" height="2047.42" maskUnits="userSpaceOnUse">
      <use width="400" height="400" transform="translate(1785.9465 1972.0629) scale(.1817)" xlink:href="#starfire"/>
    </mask>
    <mask id="mask-2" x="3589.75" y="923.49" width="78.04" height="78.04" maskUnits="userSpaceOnUse">
      <use width="400" height="400" transform="translate(3592.4409 926.1787) scale(.1817)" xlink:href="#starfire"/>
    </mask>
  </defs>
  <g id="Layer_1" data-name="Layer 1">
    <use width="400" height="400" transform="translate(1656.5508 242.1538)" xlink:href="#lunar-directive"/>
    <use width="400" height="400" transform="translate(3063.9878 242.1538)" xlink:href="#directive"/>
    <use width="400" height="400" transform="translate(1578.5089 828.2742)" xlink:href="#decree"/>
    <use width="400" height="400" transform="translate(2317.5947 828.2742)" xlink:href="#fate"/>
    <use width="400" height="400" transform="translate(3117.0504 828.2742)" xlink:href="#objective"/>
    <g>
      <path class="cls-19" d="M3436.27,1676.74c9.11,0,17.67,3.55,24.11,9.99l97.57,97.57c13.29,13.29,13.29,34.92,0,48.22l-97.57,97.57c-6.44,6.44-15,9.99-24.11,9.99s-17.67-3.55-24.11-9.99l-97.57-97.57c-6.44-6.44-9.99-15-9.99-24.11s3.55-17.67,9.99-24.11l97.57-97.57c6.44-6.44,15-9.99,24.11-9.99M3436.27,1665.74c-11.54,0-23.08,4.4-31.89,13.21l-97.57,97.57c-17.61,17.61-17.61,46.16,0,63.77l97.57,97.57c8.81,8.8,20.35,13.21,31.89,13.21s23.08-4.4,31.89-13.21l97.57-97.57c17.61-17.61,17.61-46.16,0-63.77l-97.57-97.57c-8.81-8.8-20.35-13.21-31.89-13.21h0Z"/>
      <line class="cls-9" x1="3436.27" y1="1760.73" x2="3436.27" y2="1856.07"/>
      <line class="cls-9" x1="3387.37" y1="1784.91" x2="3387.37" y2="1831.88"/>
      <line class="cls-9" x1="3485.18" y1="1784.91" x2="3485.18" y2="1831.88"/>
    </g>
    <g>
      <g>
        <path class="cls-14" d="M1638.09,1854.74c-9.08,5.04-18.79,7.85-28.51,8.58"/>
        <path class="cls-14" d="M1608.87,1863.37c-10.07.66-20.12-.88-29.44-4.44"/>
      </g>
      <g>
        <path class="cls-14" d="M1575.94,1824.21c-5.04-9.08-7.85-18.79-8.58-28.51"/>
        <path class="cls-14" d="M1567.31,1794.99c-.66-10.07.88-20.12,4.44-29.44"/>
      </g>
      <g>
        <path class="cls-14" d="M1606.47,1762.06c9.08-5.04,18.79-7.85,28.51-8.58"/>
        <path class="cls-14" d="M1635.69,1753.42c10.07-.66,20.12.88,29.44,4.44"/>
      </g>
      <g>
        <path class="cls-14" d="M1668.62,1792.59c5.04,9.08,7.85,18.79,8.58,28.51"/>
        <path class="cls-14" d="M1677.26,1821.81c.66,10.07-.88,20.12-4.44,29.44"/>
      </g>
      <path class="cls-19" d="M1622.28,1676.74c9.11,0,17.67,3.55,24.11,9.99l97.57,97.57c13.29,13.29,13.29,34.92,0,48.22l-97.57,97.57c-6.44,6.44-15,9.99-24.11,9.99s-17.67-3.55-24.11-9.99l-97.57-97.57c-13.29-13.29-13.29-34.92,0-48.22l97.57-97.57c6.44-6.44,15-9.99,24.11-9.99M1622.28,1665.74c-11.54,0-23.08,4.4-31.89,13.21l-97.57,97.57c-17.61,17.61-17.61,46.16,0,63.77l97.57,97.57c8.8,8.8,20.35,13.21,31.89,13.21s23.08-4.4,31.89-13.21l97.57-97.57c17.61-17.61,17.61-46.16,0-63.77l-97.57-97.57c-8.81-8.8-20.35-13.21-31.89-13.21h0Z"/>
    </g>
    <g>
      <path class="cls-19" d="M2517.59,1676.74c9.11,0,17.67,3.55,24.11,9.99l97.57,97.57c13.29,13.29,13.29,34.92,0,48.22l-97.57,97.57c-6.44,6.44-15,9.99-24.11,9.99s-17.67-3.55-24.11-9.99l-97.57-97.57c-13.29-13.29-13.29-34.92,0-48.22l97.57-97.57c6.44-6.44,15-9.99,24.11-9.99M2517.59,1665.74c-11.54,0-23.08,4.4-31.89,13.21l-97.57,97.57c-17.61,17.61-17.61,46.16,0,63.77l97.57,97.57c8.81,8.8,20.35,13.21,31.89,13.21s23.08-4.4,31.89-13.21l97.57-97.57c17.61-17.61,17.61-46.16,0-63.77l-97.57-97.57c-8.81-8.8-20.35-13.21-31.89-13.21h0Z"/>
      <rect class="cls-19" x="2514.27" y="1805.61" width="53.65" height="53.65" rx="13.11" ry="13.11"/>
    </g>
    <g>
      <line class="cls-11" x1="735.43" y1="1808.4" x2="757.43" y2="1808.4"/>
      <line class="cls-15" x1="801.45" y1="1808.4" x2="1307.66" y2="1808.4"/>
      <line class="cls-11" x1="1329.67" y1="1808.4" x2="1351.67" y2="1808.4"/>
    </g>
    <g>
      <line class="cls-5" x1="834.96" y1="2485.37" x2="856.96" y2="2485.37"/>
      <line class="cls-8" x1="901.28" y1="2485.37" x2="1942.8" y2="2485.37"/>
      <line class="cls-5" x1="1964.96" y1="2485.37" x2="1986.96" y2="2485.37"/>
    </g>
    <g>
      <line class="cls-5" x1="2399.9" y1="2485.37" x2="2421.9" y2="2485.37"/>
      <line class="cls-10" x1="2463.77" y1="2485.37" x2="3112.67" y2="2485.37"/>
      <line class="cls-5" x1="3133.6" y1="2485.37" x2="3155.6" y2="2485.37"/>
    </g>
    <g>
      <line class="cls-5" x1="3537.31" y1="2485.37" x2="3559.31" y2="2485.37"/>
      <line class="cls-6" x1="3602.77" y1="2485.37" x2="4450.23" y2="2485.37"/>
      <line class="cls-5" x1="4471.96" y1="2485.37" x2="4493.96" y2="2485.37"/>
    </g>
    <g>
      <line class="cls-11" x1="1840.84" y1="1808.4" x2="1862.84" y2="1808.4"/>
      <line class="cls-12" x1="1910.69" y1="1808.4" x2="2269.53" y2="1808.4"/>
      <line class="cls-11" x1="2293.46" y1="1808.4" x2="2315.46" y2="1808.4"/>
    </g>
    <g>
      <line class="cls-11" x1="2761.89" y1="1808.4" x2="2783.89" y2="1808.4"/>
      <line class="cls-12" x1="2831.74" y1="1808.4" x2="3190.58" y2="1808.4"/>
      <line class="cls-11" x1="3214.5" y1="1808.4" x2="3236.5" y2="1808.4"/>
    </g>
    <g>
      <line class="cls-11" x1="3636.05" y1="1808.4" x2="3658.05" y2="1808.4"/>
      <line class="cls-12" x1="3705.89" y1="1808.4" x2="4064.73" y2="1808.4"/>
      <line class="cls-11" x1="4088.66" y1="1808.4" x2="4110.66" y2="1808.4"/>
    </g>
    <text class="cls-16" transform="translate(312.618 2518.6651)"><tspan x="0" y="0">CalDAV</tspan></text>
    <text class="cls-17" transform="translate(3233.8735 2505.2535)"><tspan x="0" y="0">vTODO</tspan></text>
    <text class="cls-17" transform="translate(2061.4855 2505.2535)"><tspan x="0" y="0">vEVENT</tspan></text>
    <path class="cls-21" d="M2404.36,1203.78c-13.55,27.5-24.63,56.21-33.09,85.68-8.5,29.6-14.37,59.94-17.69,90.56-3.31,30.54-4.02,61.36-2.13,92.01,1.89,30.73,6.38,61.33,13.47,91.29,7.07,29.84,16.76,59.02,28.99,87.14,1.53,3.52,3.11,7.02,4.72,10.51,1.44-.84,2.88-1.68,4.32-2.52-13.94-18.4-27.88-36.8-41.82-55.2-1.31,1.01-2.62,2.02-3.93,3.03,16.09,15.79,29.34,34.2,39.26,54.45.95,1.93,4.09,1.42,4.57-.6,2.55-10.82,5.09-21.64,7.64-32.46.74-3.13-4.08-4.47-4.82-1.33-2.55,10.82-5.09,21.64-7.64,32.46l4.57-.6c-10.09-20.6-23.67-39.39-40.04-55.46-1.95-1.91-5.69.7-3.93,3.03,13.94,18.4,27.88,36.8,41.82,55.2,1.93,2.55,5.69.44,4.32-2.52-12.78-27.68-22.99-56.52-30.62-86.03-7.6-29.39-12.64-59.42-15.11-89.67-2.46-30.23-2.39-60.67.21-90.89,2.61-30.24,7.79-60.25,15.51-89.61s17.96-58.05,30.76-85.57c1.62-3.48,3.28-6.94,4.98-10.39,1.42-2.88-2.89-5.41-4.32-2.52h0Z"/>
    <path class="cls-21" d="M3160.92,1122.41c-36.32,37.55-77.21,70.26-119.6,100.66-42.56,30.51-86.63,58.83-129.92,88.27-41.07,27.92-81.46,56.91-118.82,89.7-35.78,31.41-68.96,66.1-96.5,105.02-26.96,38.09-48.26,80.45-59.82,125.78-1.41,5.55-2.67,11.13-3.8,16.74l4.91.66c2-20.41,4.01-40.83,6.01-61.24.29-2.95-4.05-3.18-4.91-.66-8.5,24.75-17,49.51-25.5,74.26-.75,2.17,1.86,3.78,3.67,2.82,17.6-9.34,35.19-18.68,52.79-28.03,2.84-1.51.32-5.83-2.52-4.32-17.6,9.34-35.19,18.68-52.79,28.03,1.22.94,2.45,1.88,3.67,2.82,8.5-24.75,17-49.51,25.5-74.26l-4.91-.66c-2,20.41-4.01,40.83-6.01,61.24-.27,2.79,4.36,3.42,4.91.66,9.22-45.97,28.5-89.18,54.19-128.26,26.06-39.63,58.28-74.94,93.24-106.87,36.42-33.26,76.04-62.59,116.63-90.53,42.88-29.51,86.73-57.6,129.33-87.53,42.25-29.67,83.4-61.23,120.4-97.33,4.53-4.42,8.99-8.9,13.38-13.45,2.24-2.31-1.29-5.85-3.54-3.54h0Z"/>
    <path class="cls-21" d="M3293.27,1257.49c-4.44,24.46-6.3,49.36-5.58,74.21.72,24.84,3.97,49.62,9.55,73.83,5.61,24.33,13.62,48.08,23.8,70.87,10.12,22.65,22.44,44.33,36.82,64.55,14.39,20.24,30.79,39.07,49.04,55.91,2.27,2.09,4.56,4.15,6.88,6.18,1.18-1.18,2.36-2.36,3.54-3.54-15.64-12.97-24.18-33.27-22.51-53.51l-4.91.66c5.36,19.19,10.72,38.37,16.09,57.56,1.39-.81,2.79-1.62,4.18-2.43-13.4-12.96-30.54-21.84-48.89-25.19-3.15-.57-4.49,4.24-1.33,4.82,17.54,3.2,33.86,11.51,46.68,23.91,1.77,1.72,4.86,0,4.18-2.43-5.36-19.19-10.72-38.37-16.09-57.56-.79-2.83-4.69-2.07-4.91.66-1.76,21.41,7.44,43.33,23.98,57.05,2.44,2.03,5.98-1.4,3.54-3.54-18.5-16.19-35.3-34.35-50.02-54.05-14.64-19.59-27.3-40.65-37.84-62.72-10.61-22.21-19.02-45.47-25.15-69.31-6.08-23.65-9.88-47.87-11.22-72.25-1.35-24.53-.27-49.23,3.5-73.51.46-2.96.96-5.91,1.5-8.86.57-3.15-4.25-4.5-4.82-1.33h0Z"/>
    <path class="cls-21" d="M1641.22,1172.85c-14.67,23.26-27.54,47.65-38.5,72.87-10.96,25.21-20.08,51.21-27.23,77.76-7.19,26.67-12.39,53.86-15.63,81.29-3.23,27.31-4.46,54.86-3.64,82.35s3.71,54.9,8.66,81.94c.62,3.37,1.27,6.73,1.95,10.09,1.52-.64,3.05-1.28,4.57-1.93-11.43-21.36-22.86-42.72-34.29-64.07l-4.32,2.52c12.72,21.57,25.44,43.14,38.16,64.71.91,1.54,3.45,1.71,4.32,0,8.19-16.21,16.38-32.42,24.57-48.62,1.45-2.87-2.86-5.4-4.32-2.52-8.19,16.21-16.38,32.42-24.57,48.62h4.32c-12.72-21.57-25.44-43.14-38.16-64.71-1.64-2.78-5.84-.31-4.32,2.52,11.43,21.36,22.86,42.72,34.29,64.07,1.4,2.61,5.11.74,4.57-1.93-5.41-26.74-8.76-53.87-10.05-81.12-1.29-27.24-.56-54.58,2.15-81.71,2.71-27.15,7.43-54.1,14.07-80.56,6.63-26.45,15.18-52.43,25.6-77.63,10.38-25.1,22.67-49.42,36.72-72.67,1.77-2.93,3.57-5.84,5.4-8.74,1.72-2.73-2.6-5.24-4.32-2.52h0Z"/>
    <path class="cls-21" d="M1536.62,756.43c238.96-1.65,477.92-3.3,716.88-4.95,237.74-1.64,475.48-3.28,713.23-4.92,134.11-.93,268.22-1.85,402.33-2.78,3.22-.02,3.22-5.02,0-5-238.96,1.65-477.92,3.3-716.88,4.95-237.74,1.64-475.48,3.28-713.23,4.92-134.11.93-268.22,1.85-402.33,2.78-3.22.02-3.22,5.02,0,5h0Z"/>
    <path class="cls-24" d="M1996.63,565.65c12.89,25.72,25.79,51.43,38.68,77.15,3.65,7.28,7.3,14.57,10.96,21.85.91,1.82,4.23,1.52,4.57-.6,2.49-15.39,4.98-30.78,7.47-46.17-1.64-.22-3.27-.44-4.91-.66,1.69,16.35.03,32.87-4.93,48.54,1.39-.37,2.79-.74,4.18-1.1-8.68-7.33-17.36-14.66-26.03-21.99-1.03-.87-2.52-1.01-3.54,0-.89.89-1.04,2.66,0,3.54,8.68,7.33,17.36,14.66,26.03,21.99,1.45,1.22,3.58.79,4.18-1.1,5.08-16.05,6.84-33.12,5.11-49.87-.13-1.24-.85-2.3-2.17-2.46-1.12-.13-2.54.55-2.74,1.79-2.49,15.39-4.98,30.78-7.47,46.17,1.52-.2,3.05-.4,4.57-.6-12.89-25.72-25.79-51.43-38.68-77.15-3.65-7.28-7.3-14.57-10.96-21.85-1.44-2.88-5.76-.35-4.32,2.52h0Z"/>
    <path class="cls-25" d="M3135.28,575.33c-14.21,21.85-26.03,45.22-35.28,69.58-2.61,6.87-5.01,13.82-7.2,20.84-.83,2.65,3.43,4.56,4.57,1.93,5.89-13.56,7.82-28.4,5.56-43.02-.37-2.37-4.49-2.4-4.82,0-1.87,13.52-3.73,27.04-5.6,40.56-.35,2.51,2.14,4.08,4.18,2.43,16-12.91,31.99-25.83,47.99-38.74,1.05-.85.88-2.65,0-3.54-1.04-1.04-2.48-.85-3.54,0-16,12.91-31.99,25.83-47.99,38.74l4.18,2.43c1.87-13.52,3.73-27.04,5.6-40.56h-4.82c2.03,13.15.24,26.96-5.06,39.17l4.57,1.93c7.66-24.54,17.93-48.23,30.63-70.59,3.59-6.33,7.38-12.54,11.34-18.64,1.76-2.71-2.57-5.21-4.32-2.52h0Z"/>
    <path class="cls-18" d="M2322.04,1170.24c-37.4,63.29-66.96,130.97-89.39,200.94s-37.87,142.72-47.52,215.84c-10.1,76.57-13.76,153.87-12.73,231.07,1.1,82.94,7.54,165.73,16.95,248.12,9.37,82.02,21.68,163.67,34.73,245.18,1.64,10.25,3.29,20.49,4.95,30.74l4.82-1.33c-9.82-23.94-19.63-47.88-29.45-71.81-1.19-2.91-5.97-1.72-4.82,1.33,8.65,22.96,17.29,45.92,25.94,68.88.91,2.42,3.87,2.31,4.82,0,9.09-22.11,18.18-44.22,27.27-66.32,1.22-2.97-3.61-4.27-4.82-1.33-9.09,22.11-18.18,44.22-27.27,66.32h4.82c-8.65-22.96-17.29-45.92-25.94-68.88-1.61.44-3.21.89-4.82,1.33,9.82,23.94,19.63,47.88,29.45,71.81,1.22,2.97,5.34,1.88,4.82-1.33-13.24-81.8-26.04-163.69-36.11-245.95-9.99-81.57-17.31-163.52-19.69-245.68-2.23-77.19-.08-154.56,8.36-231.35,8.08-73.6,21.86-146.67,42.63-217.78,20.57-70.42,48.08-138.87,83.53-203.15,4.47-8.11,9.08-16.15,13.79-24.12,1.64-2.78-2.68-5.29-4.32-2.52h0Z"/>
    <path class="cls-18" d="M3211.86,1208.07c-7.52,17.48-14.68,35.11-21.44,52.9-6.73,17.71-13.08,35.56-19.05,53.54s-11.55,36.08-16.74,54.29c-5.2,18.21-10.01,36.53-14.44,54.95s-8.44,36.78-12.1,55.3-6.95,37.25-9.85,55.97c-2.9,18.73-5.42,37.53-7.56,56.36s-3.9,37.7-5.28,56.6c-1.38,18.9-2.37,37.83-2.98,56.78-.61,18.94-.84,37.9-.69,56.86s.69,37.91,1.6,56.84,2.21,37.85,3.89,56.72,3.72,37.58,6.15,56.3c2.45,18.87,5.27,37.7,8.48,56.45,3.18,18.6,6.74,37.14,10.68,55.6s8.29,36.97,13,55.31c4.71,18.34,9.81,36.59,15.28,54.72,5.47,18.13,11.33,36.15,17.56,54.03s12.85,35.64,19.84,53.24c7.02,17.68,14.42,35.21,22.19,52.57,3.73,8.33,7.54,16.61,11.44,24.86,1.21,2.56,5.42.76,4.57-1.93-6.08-19.13-12.17-38.25-18.25-57.38-1.71-5.37-3.42-10.75-5.13-16.12l-4.82,1.33c8.19,24.11,16.38,48.21,24.57,72.32,2.3,6.77,4.6,13.55,6.9,20.32l4.18-2.43c-13.39-10.79-26.79-21.58-40.18-32.38-3.82-3.08-7.64-6.15-11.45-9.23-1.05-.85-2.51-1.03-3.54,0-.88.88-1.06,2.68,0,3.54,13.39,10.79,26.79,21.58,40.18,32.38,3.82,3.08,7.64,6.15,11.45,9.23.88.71,2,.99,3.03.39.92-.54,1.5-1.78,1.15-2.82-8.19-24.11-16.38-48.21-24.57-72.32-2.3-6.77-4.6-13.55-6.9-20.32-1.03-3.02-5.8-1.76-4.82,1.33,6.08,19.13,12.17,38.25,18.25,57.38,1.71,5.37,3.42,10.75,5.13,16.12l4.57-1.93c-8.04-17-15.73-34.17-23.02-51.51-7.32-17.4-14.27-34.95-20.84-52.64s-12.76-35.52-18.58-53.47c-5.81-17.95-11.25-36.02-16.31-54.2-5.06-18.18-9.74-36.46-14.05-54.83-4.31-18.37-8.24-36.84-11.79-55.37-3.55-18.54-6.72-37.15-9.52-55.82s-5.18-37.24-7.21-55.93c-2.03-18.77-3.69-37.59-4.96-56.42-1.28-18.84-2.17-37.71-2.69-56.58s-.66-37.76-.42-56.65c.24-18.88.86-37.76,1.86-56.61,1-18.85,2.38-37.69,4.14-56.49,1.75-18.71,3.87-37.4,6.38-56.02s5.43-37.36,8.71-55.94c3.28-18.58,6.95-37.1,10.99-55.53s8.47-36.78,13.28-55.02,9.99-36.39,15.56-54.42,11.52-35.94,17.85-53.72,13.05-35.43,20.14-52.92c3.4-8.39,6.89-16.73,10.46-25.05.53-1.24.37-2.68-.9-3.42-1.05-.62-2.88-.35-3.42.9h0Z"/>
    <path class="cls-24" d="M2721.7,943.06c18.47-15.95,39.86-28.44,62.62-37.2,22.98-8.84,47.32-14.05,71.87-15.78s49.6-.07,73.81,5c27.4,5.75,53.69,15.64,80.2,24.44,26.47,8.79,53.59,16.66,81.6,18.08,3.39.17,6.79.24,10.18.22,2.03-.01,3.47-2.81,1.77-4.27-12.3-10.5-23.54-22.21-33.52-34.94-1.61-2.05-4.79.2-4.18,2.43,3.51,12.82,12.6,23.93,24.34,30.13,3.34,1.76,6.89,3.14,10.56,4.06l.66-4.91c-16.63-2.14-33.84,3.63-46.34,14.67-3.52,3.11-6.61,6.66-9.25,10.54-.76,1.12-.21,2.77.9,3.42,1.24.72,2.66.22,3.42-.9,8.58-12.55,23.01-21.03,38.08-22.8,4.39-.51,8.82-.49,13.2.07,1.21.16,2.32-1.07,2.46-2.17.14-1.2-.56-2.43-1.79-2.74-11.64-2.92-21.69-10.81-27.55-21.26-1.67-2.99-2.95-6.13-3.86-9.43l-4.18,2.43c9.98,12.73,21.21,24.44,33.52,34.94l1.77-4.27c-28.14.2-55.56-6.86-82.17-15.41s-53.61-18.97-81.28-25.54c-24.46-5.81-49.74-8.28-74.86-7.22-24.92,1.06-49.77,5.52-73.35,13.7-23.51,8.16-45.67,19.97-65.21,35.42-2.36,1.86-4.67,3.78-6.94,5.74-1.02.88-.91,2.63,0,3.54,1.01,1.01,2.51.89,3.54,0h0Z"/>
    <path class="cls-24" d="M3531.17,1047.96c17.06-9.29,38.19-9.69,56.21-2.94,8.11,3.04,15.72,7.71,21.8,13.91,6.32,6.44,10.61,14.44,12.49,23.27,3.83,17.99-2.35,37.03-14.37,50.63s-28.43,22.4-45.69,26.13c-14.81,3.2-32.94,2.46-44.65-8.37-1.33-1.23-2.6-2.57-3.69-4.02-.75-.99-1.89-1.56-3.12-1.02-1.09.48-1.83,1.74-1.45,2.95,5.34,16.77,9.28,33.96,11.78,51.38l4.18-2.43c-12.38-12.33-22.76-26.55-30.75-42.09-2.25-4.37-4.3-8.83-6.15-13.39l-3.08,3.08c11.93,3.33,24.71,2.21,35.95-2.96,1.23-.56,1.53-2.34.9-3.42-.74-1.26-2.19-1.46-3.42-.9-9.99,4.6-21.52,5.41-32.1,2.46-1.68-.47-3.81,1.25-3.08,3.08,6.8,16.81,16.15,32.45,27.79,46.36,3.29,3.93,6.76,7.71,10.4,11.33.78.78,2.07.95,3.03.39,1.04-.61,1.31-1.71,1.15-2.82-2.49-17.42-6.44-34.61-11.78-51.38l-4.57,1.93c10.85,14.31,29.68,18.05,46.69,15.91,18.62-2.34,36.99-10.99,50.62-23.91,14.33-13.58,22.98-32.99,21.3-52.9-.84-9.85-4.16-19.4-10.15-27.32s-13.3-13.53-21.79-17.7c-18.28-9-40.8-10.53-59.82-2.89-2.45.98-4.84,2.09-7.16,3.35-2.83,1.54-.31,5.86,2.52,4.32h0Z"/>
    <path class="cls-25" d="M3429.45,384.74c8.95-7.43,17.71-15.26,27.27-21.92,8.54-5.95,18.21-11.02,28.8-11.64,18.78-1.11,34.93,11.5,44.93,26.39,11.48,17.1,16.25,38.62,14.31,59.04s-11.96,39.61-28.58,51.97c-7.67,5.7-16.66,10.28-26.07,12.23-7.14,1.47-16.5,1.26-21.91-3.95-1.19-1.15-2.17-2.53-2.77-4.05l-3.08,3.08c9.06,2.26,17.83,5.56,26.1,9.91,4.22,2.22,8.31,4.7,12.23,7.42,1.28.88,7,5.39,3.76,6.61-1.39.52-3.14.1-4.53-.2-1.6-.35-3.17-.85-4.69-1.47-2.84-1.17-5.74-2.97-8.33-4.8-5.61-3.98-10.61-8.76-16.09-12.93-6.13-4.66-12.98-8.41-20.82-8.82v5c18.36-1.51,35.87-8.43,50.34-19.82,1.06-.84.88-2.66,0-3.54-1.05-1.05-2.47-.84-3.54,0-13.34,10.5-29.89,16.97-46.8,18.36-3.19.26-3.25,4.83,0,5,6.78.36,12.86,3.99,18.29,8.14,5.84,4.46,11.15,9.61,17.26,13.74,3.01,2.03,6.21,3.77,9.64,4.99,3.63,1.29,8.34,2.49,11.95.6,2.05-1.08,3.33-3.35,3.21-5.65s-1.51-4.55-3.11-6.26-3.7-3.06-5.67-4.38c-2.08-1.39-4.2-2.71-6.35-3.96-9.84-5.71-20.5-10.01-31.53-12.76-1.68-.42-3.81,1.21-3.08,3.08,3.52,8.88,12.76,12.31,21.74,12.41,9.93.12,19.8-3.64,28.35-8.45,19.1-10.74,32.72-29.29,37.39-50.67,2.5-11.45,2.62-23.26.86-34.83-1.63-10.75-4.94-21.29-10.14-30.86-9.36-17.21-25.38-32.73-45.54-35.28-23.78-3-42.9,14.46-59.82,28.5l-7.54,6.25c-1.04.86-.89,2.64,0,3.54,1.03,1.03,2.49.86,3.54,0h0Z"/>
    <path class="cls-24" d="M2044.65,378.1c7.84-14.61,23.36-24.79,39.9-26.2s32.68,6.28,42.98,19.11c11.14,13.89,12.77,32.62,7.5,49.22-5.55,17.51-18.28,31.47-33.63,41.13-7.77,4.89-16.13,8.77-24.79,11.8-3.59,1.26-7.02,2.38-10.7,2.44-1.71.03-3.01-.07-4.56-.47-.35-.09-.7-.2-1.04-.31-.17-.06-.34-.12-.5-.19.31.13-.08-.04-.12-.06-.3-.15-.6-.31-.89-.49-.51-.3-.26-.11-.66-.5-.76-.75-1.21-1.64-1.29-2.64l-2.5,2.5c8.67.62,16.21,7.42,18.08,15.82l3.08-3.08c-11.4-3.13-22.06-8.43-31.48-15.57l-.6,4.57c10.56-2.17,20.77-5.93,30.25-11.07,2.83-1.53.31-5.85-2.52-4.32-9.12,4.95-18.89,8.48-29.05,10.57-.95.2-1.68,1.16-1.79,2.08-.13,1.08.36,1.86,1.19,2.49,9.74,7.38,20.89,12.84,32.67,16.07,1.91.52,3.48-1.24,3.08-3.08-2.38-10.66-12.09-18.72-22.91-19.5-1.28-.09-2.6,1.22-2.5,2.5.64,8.53,10.09,10.32,17.08,9.42,4.43-.57,8.65-2.19,12.8-3.78,4.68-1.79,9.29-3.81,13.75-6.11,17.46-9,33.1-22.67,41.25-40.84s8.95-38.71-1.16-55.71c-9.2-15.48-26.16-26.15-44.2-27.14-18.43-1.01-36.79,8.26-47.53,23.14-1.3,1.8-2.47,3.69-3.52,5.64-1.52,2.84,2.79,5.36,4.32,2.52h0Z"/>
    <path class="cls-24" d="M2401.35,920.18c.48-21,.98-42.75-5.72-62.94-5.37-16.18-15.57-31.61-30.73-40.07-8.45-4.71-18.33-7.13-28-5.87s-17.54,5.89-22.97,13.51c-2.43,3.41-4.18,7.44-4.81,11.6-.78,5.12.02,10.23,1.55,15.14,2.93,9.4,7.14,18.57,11.59,27.34,8.82,17.35,19.96,33.53,32.99,47.99,1.62,1.8,3.28,3.57,4.96,5.32l2.43-4.18c-17.85-2.7-34.96-9.11-50.16-18.84l-1.93,4.57c14.61,5.11,28.4,12.59,40.67,22.03,3.45,2.65,6.77,5.49,9.96,8.44.99.92,2.55.98,3.54,0,1.04-1.04.85-2.48,0-3.54-8.58-10.74-13.91-24.19-15.13-37.88-.36-4.01-.37-8.05-.07-12.06.1-1.35-1.22-2.5-2.5-2.5-1.44,0-2.4,1.15-2.5,2.5-1.14,14.85,2.29,29.97,9.54,42.96,2.07,3.71,4.48,7.2,7.13,10.51l3.54-3.54c-11.79-10.9-25.29-19.94-39.92-26.58-4.23-1.92-8.54-3.65-12.92-5.18-2.77-.97-4.23,3.1-1.93,4.57,15.52,9.94,33.12,16.59,51.35,19.35,1.12.17,2.22-.11,2.82-1.15.57-.97.38-2.23-.39-3.03-12.82-13.32-23.89-28.24-32.93-44.37-4.53-8.08-8.57-16.45-12.01-25.05s-6.93-17.32-3.63-26.24c2.67-7.22,9.09-12.94,16.32-15.37,8.68-2.91,18.44-1.88,26.74,1.78,14.78,6.52,25.26,20.12,31.05,34.9,7.24,18.48,7.57,38.72,7.24,58.29-.04,2.53-.1,5.05-.16,7.58-.07,3.22,4.93,3.22,5,0h0Z"/>
  </g>
  <g id="Layer_5" data-name="Layer 5">
    <g class="cls-1">
      <rect class="cls-26" x="1783.26" y="1969.38" width="78.04" height="78.04" rx="28.82" ry="28.82"/>
    </g>
    <g class="cls-23">
      <rect class="cls-26" x="3589.75" y="923.49" width="78.04" height="78.04" rx="28.82" ry="28.82"/>
    </g>
    <text class="cls-4" transform="translate(1684.9395 200.0098)"><tspan x="0" y="0">Lunar Directive</tspan></text>
    <g>
      <path class="cls-2" d="M1329.95,1028.27v-34.81h3.74v34.81h-3.74ZM1332.28,1028.27v-3.39h10.22c2.73,0,5.14-.6,7.23-1.8s3.72-2.86,4.88-4.98c1.16-2.12,1.75-4.55,1.75-7.29s-.59-5.09-1.77-7.18c-1.18-2.09-2.82-3.74-4.91-4.93-2.09-1.2-4.49-1.8-7.18-1.8h-10.12v-3.44h10.22c2.53,0,4.86.43,7.01,1.29,2.14.86,4.01,2.07,5.62,3.64,1.6,1.57,2.84,3.41,3.72,5.51.88,2.11,1.32,4.43,1.32,6.96s-.44,4.76-1.32,6.88c-.88,2.12-2.11,3.97-3.69,5.54-1.59,1.57-3.45,2.79-5.59,3.67-2.14.88-4.46,1.32-6.96,1.32h-10.42Z"/>
      <path class="cls-2" d="M1377.46,1028.78c-2.36,0-4.49-.54-6.37-1.62-1.89-1.08-3.38-2.56-4.48-4.45-1.1-1.89-1.64-4.01-1.64-6.37s.53-4.43,1.59-6.3,2.52-3.35,4.38-4.43c1.85-1.08,3.93-1.62,6.22-1.62s4.12.49,5.79,1.47c1.67.98,2.98,2.34,3.95,4.07.96,1.74,1.44,3.74,1.44,6,0,.27-.02.58-.05.94-.03.35-.1.77-.2,1.24h-20.59v-3.04h18.62l-1.26,1.11c.03-1.72-.26-3.21-.89-4.48-.62-1.26-1.52-2.25-2.68-2.96s-2.56-1.06-4.17-1.06c-1.72,0-3.22.38-4.5,1.14-1.28.76-2.29,1.8-3.01,3.14-.73,1.33-1.09,2.89-1.09,4.68s.38,3.42,1.14,4.81c.76,1.38,1.82,2.46,3.19,3.24,1.37.78,2.94,1.16,4.73,1.16,1.42,0,2.73-.26,3.95-.78s2.24-1.31,3.09-2.35l2.33,2.33c-1.11,1.35-2.5,2.38-4.15,3.09-1.65.71-3.42,1.06-5.31,1.06Z"/>
      <path class="cls-2" d="M1404.53,1028.78c-2.33,0-4.43-.55-6.3-1.64-1.87-1.1-3.35-2.59-4.43-4.48-1.08-1.89-1.62-4-1.62-6.32s.54-4.43,1.62-6.3c1.08-1.87,2.56-3.35,4.43-4.43,1.87-1.08,3.97-1.62,6.3-1.62,1.82,0,3.51.34,5.06,1.01,1.55.68,2.87,1.62,3.95,2.83l-2.38,2.43c-.81-.91-1.78-1.61-2.91-2.1-1.13-.49-2.37-.73-3.72-.73-1.65,0-3.14.39-4.45,1.16-1.32.78-2.34,1.83-3.09,3.16-.74,1.33-1.11,2.86-1.11,4.58s.37,3.26,1.11,4.63c.74,1.37,1.77,2.44,3.09,3.21,1.32.78,2.8,1.16,4.45,1.16,1.35,0,2.6-.24,3.74-.73,1.15-.49,2.14-1.19,2.98-2.1l2.38,2.38c-1.11,1.25-2.45,2.21-4.02,2.88s-3.26,1.01-5.08,1.01Z"/>
      <path class="cls-2" d="M1418.54,1028.27v-23.78h3.59v23.78h-3.59ZM1422.13,1014.41l-1.47-.61c0-3.04.73-5.43,2.2-7.18,1.47-1.75,3.48-2.63,6.05-2.63,1.18,0,2.26.21,3.24.63.98.42,1.89,1.09,2.73,2l-2.38,2.48c-.54-.61-1.16-1.04-1.85-1.32-.69-.27-1.48-.4-2.35-.4-1.82,0-3.31.59-4.45,1.77-1.15,1.18-1.72,2.93-1.72,5.26Z"/>
      <path class="cls-2" d="M1448.74,1028.78c-2.36,0-4.49-.54-6.38-1.62-1.89-1.08-3.38-2.56-4.48-4.45-1.1-1.89-1.64-4.01-1.64-6.37s.53-4.43,1.59-6.3,2.52-3.35,4.38-4.43c1.85-1.08,3.93-1.62,6.22-1.62s4.12.49,5.79,1.47c1.67.98,2.98,2.34,3.95,4.07.96,1.74,1.44,3.74,1.44,6,0,.27-.02.58-.05.94-.03.35-.1.77-.2,1.24h-20.59v-3.04h18.62l-1.27,1.11c.03-1.72-.26-3.21-.89-4.48-.62-1.26-1.52-2.25-2.68-2.96-1.16-.71-2.55-1.06-4.17-1.06-1.72,0-3.22.38-4.5,1.14-1.28.76-2.29,1.8-3.01,3.14-.73,1.33-1.09,2.89-1.09,4.68s.38,3.42,1.14,4.81c.76,1.38,1.82,2.46,3.19,3.24,1.37.78,2.94,1.16,4.73,1.16,1.42,0,2.73-.26,3.95-.78,1.21-.52,2.24-1.31,3.09-2.35l2.33,2.33c-1.11,1.35-2.5,2.38-4.15,3.09-1.65.71-3.42,1.06-5.31,1.06Z"/>
      <path class="cls-2" d="M1475.96,1028.78c-2.36,0-4.49-.54-6.37-1.62-1.89-1.08-3.38-2.56-4.48-4.45-1.1-1.89-1.64-4.01-1.64-6.37s.53-4.43,1.59-6.3,2.52-3.35,4.38-4.43c1.85-1.08,3.93-1.62,6.22-1.62s4.12.49,5.79,1.47c1.67.98,2.98,2.34,3.95,4.07.96,1.74,1.44,3.74,1.44,6,0,.27-.02.58-.05.94-.03.35-.1.77-.2,1.24h-20.59v-3.04h18.62l-1.26,1.11c.03-1.72-.26-3.21-.89-4.48-.62-1.26-1.52-2.25-2.68-2.96s-2.56-1.06-4.17-1.06c-1.72,0-3.22.38-4.5,1.14-1.28.76-2.29,1.8-3.01,3.14-.73,1.33-1.09,2.89-1.09,4.68s.38,3.42,1.14,4.81c.76,1.38,1.82,2.46,3.19,3.24,1.37.78,2.94,1.16,4.73,1.16,1.42,0,2.73-.26,3.95-.78s2.24-1.31,3.09-2.35l2.33,2.33c-1.11,1.35-2.5,2.38-4.15,3.09-1.65.71-3.42,1.06-5.31,1.06Z"/>
      <path class="cls-2" d="M1329.95,1088.99v-34.81h3.74v34.81h-3.74ZM1332.28,1088.99v-3.39h10.22c2.73,0,5.14-.6,7.23-1.8s3.72-2.86,4.88-4.98c1.16-2.12,1.75-4.55,1.75-7.29s-.59-5.09-1.77-7.18c-1.18-2.09-2.82-3.74-4.91-4.93-2.09-1.2-4.49-1.8-7.18-1.8h-10.12v-3.44h10.22c2.53,0,4.86.43,7.01,1.29,2.14.86,4.01,2.07,5.62,3.64,1.6,1.57,2.84,3.41,3.72,5.51.88,2.11,1.32,4.43,1.32,6.96s-.44,4.76-1.32,6.88c-.88,2.12-2.11,3.97-3.69,5.54-1.59,1.57-3.45,2.79-5.59,3.67-2.14.88-4.46,1.32-6.96,1.32h-10.42Z"/>
      <path class="cls-2" d="M1377.46,1089.49c-2.36,0-4.49-.54-6.37-1.62-1.89-1.08-3.38-2.56-4.48-4.45-1.1-1.89-1.64-4.01-1.64-6.37s.53-4.43,1.59-6.3,2.52-3.35,4.38-4.43c1.85-1.08,3.93-1.62,6.22-1.62s4.12.49,5.79,1.47c1.67.98,2.98,2.34,3.95,4.07.96,1.74,1.44,3.74,1.44,6,0,.27-.02.58-.05.94-.03.35-.1.77-.2,1.24h-20.59v-3.04h18.62l-1.26,1.11c.03-1.72-.26-3.21-.89-4.48-.62-1.26-1.52-2.25-2.68-2.96s-2.56-1.06-4.17-1.06c-1.72,0-3.22.38-4.5,1.14-1.28.76-2.29,1.8-3.01,3.14-.73,1.33-1.09,2.89-1.09,4.68s.38,3.42,1.14,4.81c.76,1.38,1.82,2.46,3.19,3.24,1.37.78,2.94,1.16,4.73,1.16,1.42,0,2.73-.26,3.95-.78s2.24-1.31,3.09-2.35l2.33,2.33c-1.11,1.35-2.5,2.38-4.15,3.09-1.65.71-3.42,1.06-5.31,1.06Z"/>
      <path class="cls-2" d="M1404.53,1089.49c-2.33,0-4.43-.55-6.3-1.64-1.87-1.1-3.35-2.59-4.43-4.48-1.08-1.89-1.62-4-1.62-6.32s.54-4.43,1.62-6.3c1.08-1.87,2.56-3.35,4.43-4.43,1.87-1.08,3.97-1.62,6.3-1.62,1.82,0,3.51.34,5.06,1.01,1.55.68,2.87,1.62,3.95,2.83l-2.38,2.43c-.81-.91-1.78-1.61-2.91-2.1-1.13-.49-2.37-.73-3.72-.73-1.65,0-3.14.39-4.45,1.16-1.32.78-2.34,1.83-3.09,3.16-.74,1.33-1.11,2.86-1.11,4.58s.37,3.26,1.11,4.63c.74,1.37,1.77,2.44,3.09,3.21,1.32.78,2.8,1.16,4.45,1.16,1.35,0,2.6-.24,3.74-.73,1.15-.49,2.14-1.19,2.98-2.1l2.38,2.38c-1.11,1.25-2.45,2.21-4.02,2.88s-3.26,1.01-5.08,1.01Z"/>
      <path class="cls-2" d="M1418.54,1088.99v-35.82h3.59v35.82h-3.59Z"/>
      <path class="cls-2" d="M1439.59,1089.49c-2.23,0-4.23-.55-6.02-1.64-1.79-1.1-3.2-2.57-4.25-4.43-1.05-1.85-1.57-3.95-1.57-6.27s.52-4.48,1.57-6.35c1.04-1.87,2.45-3.36,4.22-4.45,1.77-1.1,3.77-1.64,6-1.64,1.82,0,3.45.36,4.88,1.09,1.43.73,2.61,1.74,3.52,3.04.91,1.3,1.45,2.81,1.62,4.53v7.44c-.2,1.72-.75,3.24-1.64,4.55-.89,1.32-2.05,2.34-3.47,3.06-1.42.73-3.04,1.09-4.86,1.09ZM1440.14,1086.1c2.5,0,4.49-.83,5.97-2.48,1.48-1.65,2.23-3.83,2.23-6.53,0-1.79-.34-3.36-1.01-4.71-.68-1.35-1.64-2.4-2.88-3.16-1.25-.76-2.7-1.14-4.35-1.14s-3.13.39-4.43,1.16c-1.3.78-2.33,1.84-3.09,3.19-.76,1.35-1.14,2.9-1.14,4.65s.38,3.31,1.14,4.65c.76,1.35,1.8,2.41,3.11,3.19,1.32.78,2.8,1.16,4.45,1.16ZM1448.14,1088.99v-6.37l.71-5.87-.71-5.72v-5.82h3.59v23.78h-3.59Z"/>
      <path class="cls-2" d="M1458.81,1088.99v-23.78h3.59v23.78h-3.59ZM1462.4,1075.12l-1.47-.61c0-3.04.73-5.43,2.2-7.18,1.47-1.75,3.48-2.63,6.05-2.63,1.18,0,2.26.21,3.24.63.98.42,1.89,1.09,2.73,2l-2.38,2.48c-.54-.61-1.16-1.04-1.85-1.32-.69-.27-1.48-.4-2.35-.4-1.82,0-3.31.59-4.45,1.77-1.15,1.18-1.72,2.93-1.72,5.26Z"/>
      <path class="cls-2" d="M1488.36,1089.49c-2.23,0-4.23-.55-6.02-1.64-1.79-1.1-3.2-2.57-4.25-4.43-1.05-1.85-1.57-3.95-1.57-6.27s.52-4.48,1.57-6.35c1.04-1.87,2.45-3.36,4.22-4.45,1.77-1.1,3.77-1.64,6-1.64,1.82,0,3.45.36,4.88,1.09,1.43.73,2.61,1.74,3.52,3.04.91,1.3,1.45,2.81,1.62,4.53v7.44c-.2,1.72-.75,3.24-1.64,4.55-.89,1.32-2.05,2.34-3.47,3.06-1.42.73-3.04,1.09-4.86,1.09ZM1488.92,1086.1c2.5,0,4.49-.83,5.97-2.48,1.48-1.65,2.23-3.83,2.23-6.53,0-1.79-.34-3.36-1.01-4.71-.68-1.35-1.64-2.4-2.88-3.16-1.25-.76-2.7-1.14-4.35-1.14s-3.13.39-4.43,1.16c-1.3.78-2.33,1.84-3.09,3.19-.76,1.35-1.14,2.9-1.14,4.65s.38,3.31,1.14,4.65c.76,1.35,1.8,2.41,3.11,3.19,1.32.78,2.8,1.16,4.45,1.16ZM1496.91,1088.99v-6.37l.71-5.87-.71-5.72v-5.82h3.59v23.78h-3.59Z"/>
      <path class="cls-2" d="M1505.11,1068.44v-3.24h15.58v3.24h-15.58ZM1511.08,1088.99v-33.8h3.64v33.8h-3.64Z"/>
      <path class="cls-2" d="M1527.32,1060.1c-.68,0-1.25-.25-1.72-.76-.47-.51-.71-1.1-.71-1.77s.24-1.3.71-1.77,1.04-.71,1.72-.71c.74,0,1.34.24,1.8.71.46.47.68,1.06.68,1.77s-.23,1.27-.68,1.77c-.46.51-1.05.76-1.8.76ZM1525.54,1088.99v-23.78h3.59v23.78h-3.59Z"/>
      <path class="cls-2" d="M1544.62,1088.99l-11.03-23.78h4l9.26,20.79h-2.28l9.36-20.79h3.85l-11.08,23.78h-2.07Z"/>
      <path class="cls-2" d="M1572.14,1089.49c-2.36,0-4.49-.54-6.37-1.62-1.89-1.08-3.38-2.56-4.48-4.45-1.1-1.89-1.64-4.01-1.64-6.37s.53-4.43,1.59-6.3,2.52-3.35,4.38-4.43c1.85-1.08,3.93-1.62,6.22-1.62s4.12.49,5.79,1.47c1.67.98,2.98,2.34,3.95,4.07.96,1.74,1.44,3.74,1.44,6,0,.27-.02.58-.05.94-.03.35-.1.77-.2,1.24h-20.59v-3.04h18.62l-1.26,1.11c.03-1.72-.26-3.21-.89-4.48-.62-1.26-1.52-2.25-2.68-2.96s-2.56-1.06-4.17-1.06c-1.72,0-3.22.38-4.5,1.14-1.28.76-2.29,1.8-3.01,3.14-.73,1.33-1.09,2.89-1.09,4.68s.38,3.42,1.14,4.81c.76,1.38,1.82,2.46,3.19,3.24,1.37.78,2.94,1.16,4.73,1.16,1.42,0,2.73-.26,3.95-.78s2.24-1.31,3.09-2.35l2.33,2.33c-1.11,1.35-2.5,2.38-4.15,3.09-1.65.71-3.42,1.06-5.31,1.06Z"/>
    </g>
    <text class="cls-3" transform="translate(1069.8357 681.7512)"><tspan x="0" y="0">Timeframes</tspan></text>
    <g>
      <path class="cls-2" d="M2082.55,1028.27v-34.81h3.74v34.81h-3.74ZM2085.03,996.86v-3.39h19.53v3.39h-19.53ZM2085.03,1012.59v-3.44h18.67v3.44h-18.67Z"/>
      <path class="cls-2" d="M2119.59,1028.78c-2.23,0-4.23-.55-6.02-1.64-1.79-1.1-3.2-2.57-4.25-4.43-1.05-1.85-1.57-3.95-1.57-6.27s.52-4.48,1.57-6.35c1.05-1.87,2.45-3.36,4.22-4.45,1.77-1.1,3.77-1.64,6-1.64,1.82,0,3.45.36,4.88,1.09,1.43.73,2.61,1.74,3.52,3.04.91,1.3,1.45,2.81,1.62,4.53v7.44c-.2,1.72-.75,3.24-1.64,4.55-.89,1.32-2.05,2.34-3.47,3.06-1.42.73-3.04,1.09-4.86,1.09ZM2120.14,1025.39c2.5,0,4.49-.83,5.97-2.48,1.48-1.65,2.23-3.83,2.23-6.53,0-1.79-.34-3.36-1.01-4.71-.68-1.35-1.64-2.4-2.88-3.16-1.25-.76-2.7-1.14-4.35-1.14s-3.13.39-4.43,1.16c-1.3.78-2.33,1.84-3.09,3.19-.76,1.35-1.14,2.9-1.14,4.65s.38,3.31,1.14,4.65c.76,1.35,1.8,2.41,3.11,3.19,1.32.78,2.8,1.16,4.45,1.16ZM2128.14,1028.27v-6.37l.71-5.87-.71-5.72v-5.82h3.59v23.78h-3.59Z"/>
      <path class="cls-2" d="M2136.33,1007.73v-3.24h15.58v3.24h-15.58ZM2142.3,1028.27v-33.8h3.64v33.8h-3.64Z"/>
      <path class="cls-2" d="M2166.84,1028.78c-2.36,0-4.49-.54-6.37-1.62-1.89-1.08-3.38-2.56-4.48-4.45-1.1-1.89-1.64-4.01-1.64-6.37s.53-4.43,1.59-6.3,2.52-3.35,4.38-4.43c1.85-1.08,3.93-1.62,6.22-1.62s4.12.49,5.79,1.47c1.67.98,2.98,2.34,3.95,4.07.96,1.74,1.44,3.74,1.44,6,0,.27-.02.58-.05.94-.03.35-.1.77-.2,1.24h-20.59v-3.04h18.62l-1.26,1.11c.03-1.72-.26-3.21-.89-4.48-.62-1.26-1.52-2.25-2.68-2.96-1.16-.71-2.55-1.06-4.17-1.06-1.72,0-3.22.38-4.5,1.14-1.28.76-2.29,1.8-3.01,3.14-.73,1.33-1.09,2.89-1.09,4.68s.38,3.42,1.14,4.81c.76,1.38,1.82,2.46,3.19,3.24,1.37.78,2.94,1.16,4.73,1.16,1.42,0,2.73-.26,3.95-.78,1.21-.52,2.24-1.31,3.09-2.35l2.33,2.33c-1.11,1.35-2.5,2.38-4.15,3.09-1.65.71-3.42,1.06-5.31,1.06Z"/>
      <path class="cls-2" d="M2082.55,1088.99v-34.81h3.74v34.81h-3.74ZM2084.88,1088.99v-3.39h10.22c2.73,0,5.14-.6,7.23-1.8,2.09-1.2,3.72-2.86,4.88-4.98,1.16-2.12,1.75-4.55,1.75-7.29s-.59-5.09-1.77-7.18c-1.18-2.09-2.82-3.74-4.91-4.93-2.09-1.2-4.49-1.8-7.18-1.8h-10.12v-3.44h10.22c2.53,0,4.86.43,7.01,1.29,2.14.86,4.01,2.07,5.62,3.64,1.6,1.57,2.84,3.41,3.72,5.51.88,2.11,1.32,4.43,1.32,6.96s-.44,4.76-1.32,6.88c-.88,2.12-2.11,3.97-3.69,5.54-1.59,1.57-3.45,2.79-5.59,3.67-2.14.88-4.46,1.32-6.96,1.32h-10.42Z"/>
      <path class="cls-2" d="M2130.06,1089.49c-2.36,0-4.49-.54-6.37-1.62-1.89-1.08-3.38-2.56-4.48-4.45-1.1-1.89-1.64-4.01-1.64-6.37s.53-4.43,1.59-6.3,2.52-3.35,4.38-4.43c1.85-1.08,3.93-1.62,6.22-1.62s4.12.49,5.79,1.47c1.67.98,2.98,2.34,3.95,4.07.96,1.74,1.44,3.74,1.44,6,0,.27-.02.58-.05.94-.03.35-.1.77-.2,1.24h-20.59v-3.04h18.62l-1.26,1.11c.03-1.72-.26-3.21-.89-4.48-.62-1.26-1.52-2.25-2.68-2.96-1.16-.71-2.55-1.06-4.17-1.06-1.72,0-3.22.38-4.5,1.14-1.28.76-2.29,1.8-3.01,3.14-.73,1.33-1.09,2.89-1.09,4.68s.38,3.42,1.14,4.81c.76,1.38,1.82,2.46,3.19,3.24,1.37.78,2.94,1.16,4.73,1.16,1.42,0,2.73-.26,3.95-.78,1.21-.52,2.24-1.31,3.09-2.35l2.33,2.33c-1.11,1.35-2.5,2.38-4.15,3.09-1.65.71-3.42,1.06-5.31,1.06Z"/>
      <path class="cls-2" d="M2157.13,1089.49c-2.33,0-4.43-.55-6.3-1.64-1.87-1.1-3.35-2.59-4.43-4.48-1.08-1.89-1.62-4-1.62-6.32s.54-4.43,1.62-6.3c1.08-1.87,2.56-3.35,4.43-4.43,1.87-1.08,3.97-1.62,6.3-1.62,1.82,0,3.51.34,5.06,1.01,1.55.68,2.87,1.62,3.95,2.83l-2.38,2.43c-.81-.91-1.78-1.61-2.91-2.1-1.13-.49-2.37-.73-3.72-.73-1.65,0-3.14.39-4.45,1.16-1.32.78-2.34,1.83-3.09,3.16-.74,1.33-1.11,2.86-1.11,4.58s.37,3.26,1.11,4.63c.74,1.37,1.77,2.44,3.09,3.21,1.32.78,2.8,1.16,4.45,1.16,1.35,0,2.6-.24,3.74-.73,1.15-.49,2.14-1.19,2.98-2.1l2.38,2.38c-1.11,1.25-2.45,2.21-4.02,2.88-1.57.67-3.26,1.01-5.08,1.01Z"/>
      <path class="cls-2" d="M2171.14,1088.99v-35.82h3.59v35.82h-3.59Z"/>
      <path class="cls-2" d="M2192.19,1089.49c-2.23,0-4.23-.55-6.02-1.64-1.79-1.1-3.2-2.57-4.25-4.43-1.05-1.85-1.57-3.95-1.57-6.27s.52-4.48,1.57-6.35c1.05-1.87,2.45-3.36,4.22-4.45,1.77-1.1,3.77-1.64,6-1.64,1.82,0,3.45.36,4.88,1.09,1.43.73,2.61,1.74,3.52,3.04.91,1.3,1.45,2.81,1.62,4.53v7.44c-.2,1.72-.75,3.24-1.64,4.55-.89,1.32-2.05,2.34-3.47,3.06-1.42.73-3.04,1.09-4.86,1.09ZM2192.74,1086.1c2.5,0,4.49-.83,5.97-2.48,1.48-1.65,2.23-3.83,2.23-6.53,0-1.79-.34-3.36-1.01-4.71-.68-1.35-1.64-2.4-2.88-3.16-1.25-.76-2.7-1.14-4.35-1.14s-3.13.39-4.43,1.16c-1.3.78-2.33,1.84-3.09,3.19-.76,1.35-1.14,2.9-1.14,4.65s.38,3.31,1.14,4.65c.76,1.35,1.8,2.41,3.11,3.19,1.32.78,2.8,1.16,4.45,1.16ZM2200.74,1088.99v-6.37l.71-5.87-.71-5.72v-5.82h3.59v23.78h-3.59Z"/>
      <path class="cls-2" d="M2211.41,1088.99v-23.78h3.59v23.78h-3.59ZM2215,1075.12l-1.47-.61c0-3.04.73-5.43,2.2-7.18,1.47-1.75,3.48-2.63,6.05-2.63,1.18,0,2.26.21,3.24.63.98.42,1.89,1.09,2.73,2l-2.38,2.48c-.54-.61-1.16-1.04-1.85-1.32-.69-.27-1.48-.4-2.35-.4-1.82,0-3.31.59-4.45,1.77-1.15,1.18-1.72,2.93-1.72,5.26Z"/>
      <path class="cls-2" d="M2240.96,1089.49c-2.23,0-4.23-.55-6.02-1.64-1.79-1.1-3.2-2.57-4.25-4.43-1.05-1.85-1.57-3.95-1.57-6.27s.52-4.48,1.57-6.35c1.05-1.87,2.45-3.36,4.22-4.45,1.77-1.1,3.77-1.64,6-1.64,1.82,0,3.45.36,4.88,1.09,1.43.73,2.61,1.74,3.52,3.04.91,1.3,1.45,2.81,1.62,4.53v7.44c-.2,1.72-.75,3.24-1.64,4.55-.89,1.32-2.05,2.34-3.47,3.06-1.42.73-3.04,1.09-4.86,1.09ZM2241.51,1086.1c2.5,0,4.49-.83,5.97-2.48,1.48-1.65,2.23-3.83,2.23-6.53,0-1.79-.34-3.36-1.01-4.71-.68-1.35-1.64-2.4-2.88-3.16-1.25-.76-2.7-1.14-4.35-1.14s-3.13.39-4.43,1.16c-1.3.78-2.33,1.84-3.09,3.19-.76,1.35-1.14,2.9-1.14,4.65s.38,3.31,1.14,4.65c.76,1.35,1.8,2.41,3.11,3.19,1.32.78,2.8,1.16,4.45,1.16ZM2249.51,1088.99v-6.37l.71-5.87-.71-5.72v-5.82h3.59v23.78h-3.59Z"/>
      <path class="cls-2" d="M2257.7,1068.44v-3.24h15.58v3.24h-15.58ZM2263.67,1088.99v-33.8h3.64v33.8h-3.64Z"/>
      <path class="cls-2" d="M2279.91,1060.1c-.68,0-1.25-.25-1.72-.76-.47-.51-.71-1.1-.71-1.77s.24-1.3.71-1.77,1.05-.71,1.72-.71c.74,0,1.34.24,1.8.71.46.47.68,1.06.68,1.77s-.23,1.27-.68,1.77-1.05.76-1.8.76ZM2278.14,1088.99v-23.78h3.59v23.78h-3.59Z"/>
      <path class="cls-2" d="M2297.22,1088.99l-11.03-23.78h4l9.26,20.79h-2.28l9.36-20.79h3.84l-11.08,23.78h-2.07Z"/>
      <path class="cls-2" d="M2324.74,1089.49c-2.36,0-4.49-.54-6.37-1.62-1.89-1.08-3.38-2.56-4.48-4.45-1.1-1.89-1.64-4.01-1.64-6.37s.53-4.43,1.59-6.3,2.52-3.35,4.38-4.43c1.85-1.08,3.93-1.62,6.22-1.62s4.12.49,5.79,1.47c1.67.98,2.98,2.34,3.95,4.07.96,1.74,1.44,3.74,1.44,6,0,.27-.02.58-.05.94-.03.35-.1.77-.2,1.24h-20.59v-3.04h18.62l-1.26,1.11c.03-1.72-.26-3.21-.89-4.48-.62-1.26-1.52-2.25-2.68-2.96-1.16-.71-2.55-1.06-4.17-1.06-1.72,0-3.22.38-4.5,1.14-1.28.76-2.29,1.8-3.01,3.14-.73,1.33-1.09,2.89-1.09,4.68s.38,3.42,1.14,4.81c.76,1.38,1.82,2.46,3.19,3.24,1.37.78,2.94,1.16,4.73,1.16,1.42,0,2.73-.26,3.95-.78,1.21-.52,2.24-1.31,3.09-2.35l2.33,2.33c-1.11,1.35-2.5,2.38-4.15,3.09-1.65.71-3.42,1.06-5.31,1.06Z"/>
    </g>
    <text class="cls-4" transform="translate(2665.1761 1961.8923)"><tspan x="0" y="0">Eventive</tspan></text>
    <text class="cls-4" transform="translate(1785.2686 1942.0686)"><tspan x="0" y="0">Refective</tspan></text>
    <text class="cls-4" transform="translate(3578.6402 1954.4632)"><tspan x="0" y="0">Executive</tspan></text>
    <text class="cls-22" transform="translate(2823.4805 1463.2547)"><tspan x="0" y="0">.Due</tspan></text>
    <text class="cls-22" transform="translate(3391.4009 1429.3722)"><tspan x="0" y="0">Add to Polaris</tspan></text>
    <text class="cls-4" transform="translate(3450.2197 901.3724)"><tspan x="0" y="0">Objective</tspan></text>
    <text class="cls-4" transform="translate(3086.2042 200.0098)"><tspan x="0" y="0">Stellar Directive</tspan></text>
    <use width="403.94" height="403.94" transform="translate(293.8054 1608.3976)" xlink:href="#polaris-ui"/>
    <path class="cls-21" d="M1643.05,365.78c-22.55-3.52-45.27,1.21-66.12,9.94-19.89,8.32-38.41,19.82-55.72,32.61-16.26,12.01-31.49,25.41-45.43,40.05s-26.54,30.38-37.75,47.12-20.88,34.32-28.95,52.69c-1.05,2.38-2.06,4.77-3.06,7.18h4.82c-3.59-15.69-4.02-32.14-1.18-47.99.81-4.52,1.88-8.98,3.19-13.38l-4.91-.66c-1.49,18.78-5.34,37.35-11.39,55.19-1.74,5.14-3.67,10.21-5.77,15.21-.87,2.08,1.95,3.86,3.67,2.82,15.75-9.53,31.5-19.06,47.25-28.59,2.75-1.66.24-5.99-2.52-4.32-15.75,9.53-31.5,19.06-47.25,28.59l3.67,2.82c7.43-17.72,12.65-36.35,15.47-55.36.81-5.43,1.43-10.89,1.87-16.36.23-2.88-4.13-3.29-4.91-.66-4.78,16.08-6.33,33.14-4.43,49.81.54,4.78,1.34,9.53,2.41,14.22.24,1.06,1.35,1.84,2.41,1.84,1.19,0,1.98-.8,2.41-1.84,7.58-18.27,16.83-35.86,27.48-52.52,10.59-16.57,22.59-32.21,35.84-46.74,13.39-14.67,28.03-28.23,43.74-40.38s33.74-24.02,52.32-32.89c19.74-9.42,41.52-15.84,63.58-14.41,2.65.17,5.29.45,7.91.86,1.33.21,2.69-.34,3.08-1.75.33-1.19-.4-2.87-1.75-3.08h0Z"/>
  </g>
</svg>