<?xml version="1.0" encoding="UTF-8"?>
<svg id="Layer_1" data-name="Layer 1" xmlns="http://www.w3.org/2000/svg" xmlns:xlink="http://www.w3.org/1999/xlink" viewBox="0 0 400 400">
  <defs>
    <style>
      .cls-1 {
        fill: #fff;
      }

      .cls-2 {
        mask: url(#mask);
      }

      .cls-3 {
        fill: none;
      }

      .cls-4 {
        filter: url(#luminosity-noclip);
      }
    </style>
    <filter id="luminosity-noclip" x="121.96" y="121.96" width="156.08" height="156.08" color-interpolation-filters="sRGB" filterUnits="userSpaceOnUse">
      <feFlood flood-color="#fff" result="bg"/>
      <feBlend in="SourceGraphic" in2="bg"/>
    </filter>
    <mask id="mask" x="121.96" y="121.96" width="156.08" height="156.08" maskUnits="userSpaceOnUse">
      <g class="cls-4">
        <circle cx="221.18" cy="178.82" r="53.56"/>
      </g>
    </mask>
    <symbol id="lunar-directive" viewBox="0 0 400 400">
      <g>
        <rect class="cls-3" width="400" height="400"/>
        <g class="cls-2">
          <circle class="cls-1" cx="200" cy="200" r="78.04"/>
        </g>
        <path class="cls-1" d="M200,58.22c2.58,0,5.01,1.01,6.83,2.83l132.11,132.11c1.83,1.83,2.83,4.25,2.83,6.83s-1.01,5.01-2.83,6.84l-132.11,132.11c-1.83,1.83-4.25,2.83-6.83,2.83s-5.01-1.01-6.83-2.83L61.05,206.83c-1.83-1.83-2.83-4.25-2.83-6.84s1.01-5.01,2.83-6.83L193.17,61.05c1.83-1.83,4.25-2.83,6.83-2.83M200,47.22c-5.29,0-10.58,2.02-14.61,6.05L53.27,185.39c-8.07,8.07-8.07,21.16,0,29.23l132.11,132.11c4.04,4.04,9.32,6.05,14.61,6.05s10.58-2.02,14.61-6.05l132.11-132.11c8.07-8.07,8.07-21.16,0-29.23L214.61,53.27c-4.04-4.04-9.32-6.05-14.61-6.05h0Z"/>
      </g>
    </symbol>
  </defs>
  <use width="400" height="400" xlink:href="#lunar-directive"/>
</svg>