<?xml version="1.0" encoding="UTF-8"?>
<svg id="Layer_1" data-name="Layer 1" xmlns="http://www.w3.org/2000/svg" xmlns:xlink="http://www.w3.org/1999/xlink" viewBox="0 0 400 400">
  <defs>
    <style>
      .cls-1 {
        fill: #fff;
      }

      .cls-2 {
        mask: url(#mask);
      }

      .cls-3, .cls-4 {
        fill: none;
        stroke: #fff;
        stroke-linecap: round;
        stroke-miterlimit: 10;
        stroke-width: 9px;
      }

      .cls-4 {
        stroke-dasharray: 72 32 48 36 24;
      }
    </style>
    <filter id="luminosity-noclip" x="152.21" y="-4275.39" width="115.35" height="32766" color-interpolation-filters="sRGB" filterUnits="userSpaceOnUse">
      <feFlood flood-color="#fff" result="bg"/>
      <feBlend in="SourceGraphic" in2="bg"/>
    </filter>
    <mask id="mask" x="152.21" y="-4275.39" width="115.35" height="32766" maskUnits="userSpaceOnUse"/>
  </defs>
  <path class="cls-3" d="M220.7,55.52c64.03,9.09,114.68,59.75,123.77,123.78"/>
  <path class="cls-4" d="M162.26,341.3c12.04,3.21,24.69,4.92,37.74,4.92,77.68,0,141.21-60.58,145.93-137.07"/>
  <path class="cls-4" d="M58.7,237.74c-3.21-12.04-4.92-24.69-4.92-37.74,0-77.68,60.58-141.21,137.07-145.93"/>
  <g>
    <g class="cls-2">
      <path class="cls-1" d="M165.09,221.04c5.07,4.47,13.57,7.21,25.51,8.23v-45.06c0-16.06,1.61-28.29,4.82-36.71,5.42-13.91,16.34-21.01,32.75-21.3,14.13-.21,24.9,6.89,32.32,21.3,4.71,9.06,7.06,21.87,7.06,38.43,0,10.49-.89,17.87-2.68,22.16-3.21,7.71-7.14,13.84-11.77,18.41-5.5,5.35-10.56,8.99-15.2,10.92-4.28,1.86-13.49,3-27.62,3.43v45.28h-19.69v-45.28c-14.2-.29-23.41-1.43-27.62-3.43-2.54-1.2-5.11-2.73-7.69-4.6-4.06-2.94-4.12-8.98-.17-12.08l.13-.1c2.93-2.3,7.04-2.06,9.84.41ZM210.29,229.16c16.06-1.64,25.87-6.03,29.44-13.17,3.92-7.71,5.89-18.3,5.89-31.79,0-15.77-1.32-27.51-3.96-35.22-2.78-8.06-7.28-12.09-13.49-12.09-5.42,0-10.06,4.03-13.91,12.09-2.57,5.35-3.89,17.09-3.96,35.22v44.96Z"/>
    </g>
    <path class="cls-1" d="M176.05,153.76l-12.83-5.79,5.32-9.23c.12-.21-.11-.44-.32-.32l-9.23,5.32-5.79-12.83c-.38-.84-1.58-.84-1.96,0l-5.79,12.83-9.23-5.32c-.21-.12-.44.11-.32.32l5.32,9.23-12.83,5.79c-.84.38-.84,1.58,0,1.96l12.83,5.79-5.32,9.23c-.12.21.11.44.32.32l9.23-5.32,5.79,12.83c.38.84,1.58.84,1.96,0l5.79-12.83,9.23,5.32c.21.12.44-.11.32-.32l-5.32-9.23,12.83-5.79c.84-.38.84-1.58,0-1.96Z"/>
  </g>
</svg>